<?xml version="1.0" encoding="UTF-8"?>
<!-- Created with Inkscape (http://www.inkscape.org/) -->
<svg width="131.14mm" height="163mm" version="1.1" viewBox="0 0 131.14 163" xml:space="preserve" xmlns="http://www.w3.org/2000/svg"><g transform="matrix(.41341 0 0 .41341 -70.516 36.12)"><path d="m244.57 267.48c1.1949 3.1018 2.7934 5.6387 6.0328 5.8781l144.94 0.46406c4.2526-0.49724 5.4853-3.2595 6.4969-6.1875l0.15469-56.461c-7.6086-89.12-144.94-101.63-157.32 0z" fill="#82f7ca"/><path d="m246.87 306.55c-10.153-1.223-18.26-5.1714-25.663-12.498-5.6532-5.595-8.8215-10.656-11.224-17.929-1.448-4.3842-1.4843-5.1298-1.6986-34.88-0.22848-31.719 0.0868-37.864 2.5256-49.221 4.8882-22.764 18.855-46.284 36.298-61.124 2.861-2.4341 5.2018-4.5782 5.2018-4.7645l18.466-12.102c0.24961 0.25743 3.0368-0.64437 6.1938-2.004 11.873-5.1136 23.281-7.9359 37.042-9.1646 17.796-1.589 38.378 2.1786 55.358 10.134 3.311 1.5512 6.0819 2.7453 6.1576 2.6536l18.167 11.908 6.0942 5.682c17.562 16.374 29.319 37.469 34.377 61.68 1.3841 6.6252 1.4652 8.5718 1.6761 40.204 0.2501 37.513 0.14906 38.619-4.3467 47.582-4.3304 8.6329-10.874 15.131-19.506 19.37-10.331 5.0731-3.9353 4.7179-87.04 4.8335-40.832 0.0568-75.968-0.10493-78.08-0.35935zm149.78-21.846c4.9165-0.90887 7.806-2.4309 11.358-5.9829 3.622-3.622 5.4616-7.3748 6.321-12.895 1.0629-6.8271 0.29164-58.106-0.97137-64.584-3.8374-19.684-11.896-35.344-25.305-49.179-13.812-14.25-30.671-23.048-51.264-26.753-7.796-1.4028-24.518-1.062-32.64 0.66526-35.599 7.57-62.32 32.918-71.585 67.907-2.478 9.3579-2.7609 14.413-2.5434 45.44l0.20865 29.76 1.6692 3.52c2.8922 6.0989 8.9221 10.839 15.416 12.117 4.2792 0.8426 144.77 0.82799 149.34-0.0155zm-101.14-18.108c-2.4105-1.078-3.8393-2.6697-5.0956-5.6764-2.1925-5.2473-0.15683-11.129 4.75-13.723 2.7665-1.463 2.9635-1.4738 26.906-1.4738 23.902 0 24.144 0.0132 26.939 1.468 3.8656 2.0118 5.8833 5.866 5.5276 10.559-0.27261 3.5966-1.5339 5.8391-4.5526 8.0939-1.7065 1.2747-2.6298 1.3245-27.16 1.4656-20.109 0.1157-25.793-0.0326-27.314-0.71256zm-14.72-53.741c-2.3707-1.0975-4.4963-3.3555-5.3974-5.7337-0.37545-0.99092-0.68263-5.5597-0.68263-10.153 0-9.3746 0.86709-12.049 4.6258-14.27 5.7745-3.4111 11.767-2.0015 15.162 3.5662 1.1777 1.9318 1.3281 3.1987 1.3302 11.203 2e-3 8.3082-0.11203 9.1935-1.4376 11.141-0.792 1.1637-2.22 2.6936-3.1735 3.3998-2.1906 1.6226-7.7706 2.0752-10.427 0.84571zm73.568 3e-3c-2.6088-1.1838-5.2654-4.443-5.7569-7.063-0.21978-1.1715-0.30324-5.7511-0.18546-10.177 0.18428-6.9252 0.39805-8.2927 1.5337-9.8115 3.9854-5.3304 10.486-6.4649 15.722-2.7439 3.1153 2.214 3.7589 4.6972 3.7589 14.502 0 8.2057-0.11659 9.0999-1.44 11.044-0.792 1.1637-2.22 2.6936-3.1734 3.3998-2.1878 1.6206-7.7607 2.0729-10.458 0.84894z"/></g><path d="m28.933 92.059c-0.10161-1.2198-0.12218-5.8839-0.04571-10.365 0.14325-8.3946 0.53795-12.055 1.6326-15.14 0.49246-1.3879 0.31659-1.596-1.3538-1.6022-2.0681-8e-3 -7.3311-1.0695-10.421-2.1025-7.422-2.4815-13.022-6.3181-16.142-11.058-5.4042-8.2114-2.2839-18.196 8.3454-26.705 3.9939-3.197 8.1898-4.841 20.497-8.0312 15.274-3.959 19.906-5.9819 26.334-11.5 1.3097-1.1242 3.2147-2.5092 4.2333-3.0778 11.255-6.2827 24.924-0.46583 37.06 15.77 3.9864 5.3332 5.042 6.1727 12.02 9.5597 10.109 4.9063 11.846 5.9327 14.362 8.4821 1.7766 1.8004 2.2781 2.4984 3.4807 4.8447 1.405 2.7412 2.0327 5.0975 2.185 8.2021 0.28048 5.7174-1.866 10.423-6.0195 13.197-4.5517 3.0395-15.952 6.0852-24.46 6.5348-1.8913 0.1-3.4743 0.21159-3.5178 0.2481-0.0435 0.0365 0.0432 1.2586 0.19274 2.7158 0.32638 3.1806 0.95814 21.432 0.74908 21.641-0.0808 0.0808-1.0224-0.29463-2.0923-0.83437-2.813-1.4191-8.3893-3.6095-11.603-4.5577-14.43-4.258-29.428-3.8667-43.408 1.1326-0.95473 0.34142-3.2169 1.2761-5.0271 2.0772s-4.085 1.7551-5.0551 2.1203l-1.7639 0.66386zm65.383-9.8466c-0.10118-3.1651-0.29433-7.1239-0.42923-8.7974l-0.24526-3.0427-1.8582-1.7639c-7.2617-6.8932-23.677-8.6546-44.936-4.8215-3.6878 0.66493-8.1576 1.7012-11.206 2.5979l-1.5017 0.4418-0.2181 1.7729c-0.24522 1.9934-0.27468 8.6836-0.03928 8.9191 0.08405 0.084 1.5665-0.26464 3.2943-0.77485 7.9474-2.3468 15.946-3.4341 25.234-3.43 6.7876 3e-3 10.677 0.36302 15.875 1.4696 3.0243 0.64381 9.0307 2.5826 10.471 3.38 0.5709 0.316 0.79988 0.48946 0.50884 0.38547-9.1133-3.256-15.819-4.299-25.665-3.9919-7.1599 0.22333-12.563 0.9711-19.447 2.6915-3.6182 0.90422-9.4028 2.8179-9.8403 3.2554-0.21697 0.21697 0.11437 4.1757 0.37097 4.4323 0.05594 0.0559 1.7034-0.41991 3.661-1.0574 7.0299-2.2894 12.925-3.291 20.625-3.5041 7.8856-0.2182 13.148 0.36444 20.77 2.2995 4.1902 1.0638 9.3467 2.8703 12.435 4.3565 1.0186 0.49014 1.9581 0.9014 2.0877 0.9139 0.13633 0.0132 0.1581-2.4022 0.0516-5.732zm9.6346-16.854c8.583-1.1527 17.395-4.2259 20.288-7.0751 2.0009-1.971 2.8088-3.9198 2.9405-7.0936 0.18869-4.5457-1.2054-8.3121-4.2834-11.572-2.0822-2.2056-4.5312-3.6916-10.582-6.4211-2.505-1.13-5.3045-2.4331-6.221-2.8958s-1.7232-0.78446-1.7925-0.71511c-0.18402 0.18402 1.5758 4.1111 3.2788 7.3169 1.5584 2.9335 3.5038 5.9547 4.8981 7.6067l0.83752 0.99229-1.1481-1.0583c-3.5298-3.2538-7.0131-8.0124-11.176-15.268-1.1924-2.0783-2.7373-4.4937-3.4332-5.3677-0.69583-0.87399-2.212-2.7971-3.3692-4.2737-5.1188-6.5312-11.441-11.56-16.938-13.473-1.4926-0.51947-2.7302-0.7338-4.8276-0.83608-3.2922-0.16054-5.3992 0.3367-7.9516 1.8766-1.7398 1.0496-4.8557 3.7336-5.318 4.5808-0.66726 1.2228-4.2521 5.1256-6.5343 7.1139-4.4684 3.8929-8.6971 6.6243-14.153 9.1416-2.9539 1.363-8.5357 3.2962-8.7882 3.0438-0.08995-0.0899 0.0268-0.16354 0.25943-0.16354 0.69422 0 7.0547-3.2911 9.6009-4.9679 3.6845-2.4263 10.173-7.8704 10.173-8.5356 0-0.12364-0.83724 0.12045-1.8605 0.54242-2.4147 0.99573-7.4654 2.648-11.633 3.8055-13.261 3.6829-14.559 4.1074-18.124 5.9248-2.0469 1.0435-2.8302 1.662-5.5788 4.4052-4.7316 4.7222-6.4087 7.947-6.1335 11.794 0.17508 2.447 1.3144 4.5094 3.7631 6.8124 3.7368 3.5144 9.2278 5.9532 15.887 7.056 2.8428 0.4708 7.276 0.73644 7.276 0.43597 0-0.11754-0.87661-0.93881-1.948-1.825-5.2625-4.353-8.4445-9.9607-8.3492-14.714 0.01902-0.94855 0.06847-0.85668 0.41783 0.7762 1.4679 6.8608 9.0352 13.083 20.628 16.963l2.6816 0.8973 4.0666-0.6341c5.1858-0.80862 9.1903-2.2456 16.549-5.9384 10.917-5.4785 21.865-13.619 25.316-18.825 1.2438-1.876 1.2473-1.4046 5e-3 0.65793-1.5258 2.5328-3.2599 4.5564-7.0428 8.2183-4.7692 4.6167-11.184 9.5581-16.894 13.013-1.1437 0.69204-2.0825 1.3292-2.0863 1.4159-4e-3 0.0867 1.8684 0.23184 4.1603 0.32256 2.292 0.0907 5.2388 0.34514 6.5484 0.56538 1.3097 0.22023 3.0361 0.40359 3.8365 0.40747 2.6214 0.0127 7.2561-1.0613 12.766-2.9581 13.412-4.6174 15.544-5.1672 18.588-4.7935l1.5875 0.19491-2.1167 0.18657c-2.9295 0.25823-5.6082 1.2918-13.6 5.2473-3.725 1.8437-7.4574 3.6256-8.2941 3.9599-0.83674 0.33425-1.5199 0.6832-1.5182 0.77544 2e-3 0.0922 0.68633 0.54346 1.5214 1.0027s2.054 1.2568 2.7088 1.7723l1.1906 0.93732 3.5719 8e-3c1.9645 5e-3 4.822-0.15944 6.35-0.36465z"/></svg>
